<?xml version="1.0" encoding="utf-8"?>
<!-- Generator: Adobe Illustrator 22.0.1, SVG Export Plug-In . SVG Version: 6.00 Build 0)  -->
<svg version="1.1" id="Layer_1" xmlns="http://www.w3.org/2000/svg" xmlns:xlink="http://www.w3.org/1999/xlink" x="0px" y="0px"
	 viewBox="0 0 75 75" enable-background="new 0 0 75 75" xml:space="preserve">
<g>
	<path fill="#5BC7E8" d="M69.6,45.1L69.6,45.1L69.6,45.1L69.6,45.1c-1-0.3-1.9-0.7-2.6-1.4c-0.3-0.3-0.6-0.5-0.4-1
		c0.2-0.4,0.6-0.4,1-0.3c1,0.1,1.9,0.7,2.7,1.3c0,0,0.1,0,0.1,0.1h0.1c0.7,0.3,1.2,0.9,2,0.8c-0.7-0.3-1.2-0.9-2-1
		c-0.8-1.1-2.1-1.3-3.3-1.6c-0.5-0.1-1,0-1.2,0.5c-0.2,0.4-0.2,0.9,0.2,1.2c1,0.7,1.8,1.8,3.3,1.6c0.8,1.1,1.7,1.7,3,0.6
		C71.4,46.1,70.5,45.8,69.6,45.1z M65,26c-2.7-3.8-5.3-7.6-8.1-11.3c-1.2-1.6-3-2.3-5.1-2.1c-7.1,0.8-14.3,1.1-21.5,1.3
		c-0.1-0.1-0.3-0.2-0.4-0.3c-1.6-0.5-3.3-0.3-4.9-0.4c-1.6,0-3.2,0.2-4.7-0.3c-3-1-6.8,0.6-8.5,3.3c-2.1,3.3-3.2,7.1-4.9,10.5
		c-0.6,1.2-1.5,2.3-1.7,3.7c-0.5,3.5,1.5,5.7,3.8,7.7c3.2,2.7,6.3,5.5,9.1,8.6c4.2,4.6,9,8.6,13.3,13.1c1.2,1.2,2.5,2.3,3.8,3.3
		c2.5,1.8,3.7,1.6,5.5-0.8c3.7-4.7,7.6-9.2,11.5-13.7c2.3-2.7,4.7-5.5,6.6-8.6c0.1-0.1,0.2-0.2,0.3-0.3c2.3-1.7,3.4-4.3,5.4-6.2
		C66.9,31.1,66.7,28.5,65,26z M25.7,28c0.1-2.1,0.7-4.1,1.2-6.2c0.4-0.3,0.4-0.9,0.6-1.3c0.8-2.8,2.7-3.7,5.5-3.6
		c2.4,0.1,4.7,0.3,7.1,0.3c0.7,0,1.1,0.4,1.3,1c1.2,2.7,2.4,5.3,3.6,8c0.6,1.5,0.3,1.9-1.4,2c-5.1,0.3-10.3,0.6-15.4,0.9
		c-0.6,0-1.3-0.2-2-0.2C25.7,28.7,25.7,28.4,25.7,28z M10.3,28.6c1.8-3.2,2.6-6.8,4.1-10.1c0.2-0.2,0.4-0.5,0.6-0.7
		c2.4-2.2,5.2-2.3,8.2-1.6c1.2,0.3,1.1,1.1,0.9,1.9c-0.5,2.1-1.1,4.1-1.7,6.2C22.1,25.2,22,26,22,26.9c-0.1,1.9-1,2.8-2.9,2.9
		c-2.5,0-5,0-7.5,0.6c-0.7,0.2-1.4-0.1-1.8-0.6C9.3,29.2,10.1,29,10.3,28.6z M33.5,58.2c-2.1-1.8-4.2-3.6-6.2-5.5
		C22,47.5,16.7,42.2,11.4,36.9C10.5,36,9.2,35,9.7,33.8c0.4-0.9,2-0.3,3.1-0.3c1.9,0,3.8-0.3,5.7-0.6c2.7-0.4,3.7,0.1,4.9,2.4
		c3.6,6.8,7.2,13.7,9.8,21c0.2,0.6,0.4,1.1,0.6,1.7C33.7,58,33.6,58.1,33.5,58.2z M37.3,55.5c-0.1,0.3-0.3,0.6-0.6,1.3
		c-2.6-7.6-6.6-14.1-10.1-20.8c-0.2-0.5-0.5-1-0.7-1.5c-0.5-1.7,0-2.4,1.7-2.4c4.9,0,9.9-0.4,14.8-0.6c3.1-0.1,3.3,0.1,2.2,3
		C42.3,41.4,39.8,48.5,37.3,55.5z M59.9,32.6c-4.7,5.7-9.4,11.4-14.1,17.1c-0.3,0.3-0.5,0.7-0.7,1.1c-0.1,0.1-0.2,0.2-0.3,0.3
		c-0.7,0.1-1,0.7-1.8,1c0.6-2.6,1.1-5.2,2.1-7.5c1.5-3.5,2.9-7,3.9-10.6c0.7-2.7,1.9-3.3,4.7-3.1c1.3,0.1,2.6,0.3,3.9,0
		c0.5-0.1,1.1-0.1,1.6,0C60.6,31,60.8,31.6,59.9,32.6z M59.9,27.7c-0.1,0-0.2,0-0.3,0h-2.8c-1.4,0-2.8,0-4.3,0.3
		c-1.7,0.3-2.9-0.3-3.9-1.8c-1.6-2.6-2.6-5.6-4-8.3c-0.4-0.8-0.1-1.3,0.8-1.4c2.6-0.2,5.2-0.5,7.9-0.7c1-0.1,1.7,0.6,2.1,1.3
		c1.6,2.9,4.1,5.3,5.7,8.3C61.8,26.9,61.5,27.5,59.9,27.7z M58.7,6.9c1.2-0.5,1.9-1.5,2-2.8c0.1-1.4,0.1-2.7-0.3-4
		C60,0.5,60.2,1,60.3,1.5c0,1,0.2,2.1-0.1,3.1c-0.3,1.3-1.5,2.1-2.5,1.8c-1.2-0.4-1.4-1.3-0.6-2.9c0.2-0.4,0.4-0.7,0.5-1
		C57.7,1.6,58.5,1,58,0c-0.4,1.4-1.2,2.7-1.9,4c-0.4,0.8-0.4,1.5,0.2,2.1C57,6.7,57.8,7.2,58.7,6.9z M39,68.1
		c-0.9,0.2-1.1,0.9-1.1,1.7c0,1.9-0.2,3.8,1.7,5.2c0.2-0.4,0-0.7-0.2-0.9c-1.2-1.1-1-2.6-1-4c0-0.7,0.2-1.4,1-1.5s1.2,0.4,1.5,1
		c0.6,1.2,0.8,2.5,0.4,3.8l0,0c0,0.1-0.1,0.2-0.1,0.3l0,0v0.1c-0.1,0.2-0.1,0.5-0.1,0.7l0,0c0,0.1,0.1,0.3,0.2,0.4
		c0.1-0.3,0.2-0.7,0.3-1c0.7-1.7,0.4-3.3-0.4-4.9C40.6,68.3,39.9,67.9,39,68.1z M10.5,9.1c0.7,0.4,1.6,0.4,1.6-0.8S9,3.5,7.7,3.3
		c-0.7,0-1.6,0-1.2,1C7.3,6.3,8.5,8.1,10.5,9.1z M7.3,51c-1-0.7-2-0.6-2.8,0.2c-0.7,0.7-1.4,1.6-2,2.3c1.1-0.1,1.4-1.2,2.2-1.8
		c1-0.9,2.3-0.9,2.8,0.1c0.7,1.4-0.4,2.3-1,3.2c-0.6,0.8-1.4,1-2.3,0.5c-0.5-0.3-1-0.8-1.6-0.4c0.3,0.1,0.6,0.2,0.9,0.4
		c2,1.2,2.7,1,3.9-1c0.2-0.3,0.4-0.6,0.6-1C8.3,52.6,8.3,51.6,7.3,51z"/>
	<path fill="#5BC7E8" d="M60.6,4c-0.1,1.3-0.8,2.3-2,2.8c-0.9,0.4-1.7-0.1-2.3-0.8c-0.6-0.6-0.6-1.3-0.2-2.1c0.7-1.3,1.5-2.5,1.9-4
		h2.3C60.7,1.3,60.7,2.7,60.6,4z"/>
	<path fill="#5BC7E8" d="M7.8,53.6c-0.2,0.3-0.4,0.7-0.6,1c-1.2,2-1.9,2.2-3.9,1c-0.3-0.2-0.6-0.3-0.9-0.4v-1.7
		c0.7-0.8,1.3-1.6,2-2.3c0.8-0.9,1.8-0.9,2.8-0.2C8.3,51.6,8.3,52.6,7.8,53.6z"/>
	<path fill="#5BC7E8" d="M41,69.1c-0.4-0.8-1.2-1.2-2-1c-0.9,0.2-1.1,0.9-1.1,1.7c0,1.9-0.2,3.8,1.7,5.2h1.3
		c0.1-0.1,0.1-0.3,0.1-0.4l0,0c0.1-0.2,0.1-0.4,0.1-0.7c0-0.1,0-0.1,0-0.2l0,0c0.1,0.1,0.2,0.2,0.4,0.2C42.1,72.3,41.8,70.7,41,69.1
		z M40.8,72.7L40.8,72.7L40.8,72.7C40.8,72.6,40.9,72.6,40.8,72.7c0.2,0.2,0.1,0.4,0.1,0.6C40.9,73.1,40.9,72.9,40.8,72.7z"/>
	<path fill="#5BC7E8" d="M72.5,44.6v1.3c-1.3,1.1-2.2,0.5-3-0.6c0-0.1,0-0.2,0-0.3l0,0c0-0.6,0.4-1,0.8-1.3c0.1-0.1,0.2-0.1,0.2-0.2
		C71.3,43.7,71.9,44.3,72.5,44.6z"/>
	<path fill="#5BC7E8" d="M41.4,74c-0.1,0.3-0.2,0.7-0.3,1h-0.3v-2.7c0.4,0.4,0.3,0.8,0.3,1.2l0,0C41.2,73.7,41.2,73.9,41.4,74z"/>
	<path fill="#5BC7E8" d="M65,26c-2.7-3.8-5.3-7.6-8.1-11.3c-1.2-1.6-3-2.3-5.1-2.1c-7.1,0.8-14.3,1.1-21.5,1.3
		c-0.3,0.1-0.5,0.4-0.7,0.7l0,0l0,0c-0.1,0-0.1,0.1-0.2,0.1c0.1,0,0.1-0.1,0.2-0.1l0,0l0,0l0,0c0-0.1,0-0.2,0-0.3
		c-0.1-0.1-0.1-0.1-0.2-0.1c0.2,0,0.4-0.1,0.5-0.5c-1.6-0.5-3.3-0.3-4.9-0.4c-1.6,0-3.2,0.2-4.7-0.3c-3-1-6.8,0.6-8.5,3.3
		c-2.1,3.3-3.2,7.1-4.9,10.5c-0.6,1.2-1.5,2.3-1.7,3.7C4.7,34,6.7,36.2,9,38.2c3.2,2.7,6.3,5.5,9.1,8.6c4.2,4.6,9,8.6,13.3,13.1
		c1.2,1.2,2.5,2.3,3.8,3.3c2.5,1.8,3.7,1.6,5.5-0.8c3.7-4.7,7.6-9.2,11.5-13.7c2.3-2.7,4.7-5.5,6.6-8.6c0.1-0.3,0.1-0.5,0.1-0.8
		c0,0.2,0,0.3,0.2,0.4c2.3-1.7,3.4-4.3,5.4-6.2C66.9,31.1,66.7,28.5,65,26z M28.5,14c0.2-0.1,0.4,0,0.6,0C28.8,14,28.6,14.1,28.5,14
		z M25.7,28c0.1-2.1,0.7-4.1,1.2-6.2c0.4-0.3,0.4-0.9,0.6-1.3c0.8-2.8,2.7-3.7,5.5-3.6c2.4,0.1,4.7,0.3,7.1,0.3c0.7,0,1.1,0.4,1.3,1
		c1.2,2.7,2.4,5.3,3.6,8c0.6,1.5,0.3,1.9-1.4,2c-5.1,0.3-10.3,0.6-15.4,0.9c-0.6,0-1.3-0.2-2-0.2C25.7,28.7,25.7,28.4,25.7,28z
		 M10.3,28.6c1.8-3.2,2.6-6.8,4.1-10.1c0.2-0.2,0.4-0.5,0.6-0.7c2.4-2.2,5.2-2.3,8.2-1.6c1.2,0.3,1.1,1.1,0.9,1.9
		c-0.5,2.1-1.1,4.1-1.7,6.2C22.1,25.2,22,26,22,26.9c-0.1,1.9-1,2.8-2.9,2.9c-2.5,0-5,0-7.5,0.6c-0.7,0.2-1.4-0.1-1.8-0.6
		C9.3,29.2,10.1,29,10.3,28.6z M33.5,58.2c-2.1-1.8-4.2-3.6-6.2-5.5C22,47.5,16.7,42.2,11.4,36.9C10.5,36,9.2,35,9.7,33.8
		c0.4-0.9,2-0.3,3.1-0.3c1.9,0,3.8-0.3,5.7-0.6c2.7-0.4,3.7,0.1,4.9,2.4c3.6,6.8,7.2,13.7,9.8,21c0.2,0.6,0.4,1.1,0.6,1.7
		C33.7,58,33.6,58.1,33.5,58.2z M37.3,55.5c-0.1,0.3-0.3,0.6-0.6,1.3c-2.6-7.6-6.6-14.1-10.1-20.8c-0.2-0.5-0.5-1-0.7-1.5
		c-0.5-1.7,0-2.4,1.7-2.4c4.9,0,9.9-0.4,14.8-0.6c3.1-0.1,3.3,0.1,2.2,3C42.3,41.4,39.8,48.5,37.3,55.5z M58.8,39.1
		c0-0.2,0-0.4-0.1-0.6l0,0v-0.1c0,0,0,0,0,0.1C58.8,38.7,58.8,38.9,58.8,39.1z M59.9,32.6c-4.7,5.7-9.4,11.4-14.1,17.1
		c-0.3,0.3-0.5,0.7-0.7,1.1c-0.1,0.1-0.2,0.2-0.3,0.3c-0.7,0.1-1,0.7-1.8,1c0.6-2.6,1.1-5.2,2.1-7.5c1.5-3.5,2.9-7,3.9-10.6
		c0.7-2.7,1.9-3.3,4.7-3.1c1.3,0.1,2.6,0.3,3.9,0c0.5-0.1,1.1-0.1,1.6,0C60.6,31,60.8,31.6,59.9,32.6z M59.9,27.7
		c-0.1,0-0.2,0-0.3,0h-2.8c-1.4,0-2.8,0-4.3,0.3c-1.7,0.3-2.9-0.3-3.9-1.8c-1.6-2.6-2.6-5.6-4-8.3c-0.4-0.8-0.1-1.3,0.8-1.4
		c2.6-0.2,5.2-0.5,7.9-0.7c1-0.1,1.7,0.6,2.1,1.3c1.6,2.9,4.1,5.3,5.7,8.3C61.8,26.9,61.5,27.5,59.9,27.7z"/>
	<path fill="#5BC7E8" d="M12.1,8.3c0,1.3-0.9,1.2-1.6,0.8c-2-1-3.2-2.8-4-4.8c-0.4-1,0.5-1,1.2-1C9,3.4,12.1,7,12.1,8.3z"/>
	<path fill="#5BC7E8" d="M70.6,43.6c0,0.1,0,0.2,0,0.3c-0.1,0.5-0.7,0.8-0.9,1.3c0,0.1-0.1,0.1-0.1,0.2c-1.4,0.1-2.3-0.9-3.3-1.6
		c-0.4-0.3-0.4-0.8-0.2-1.2c0.2-0.5,0.7-0.7,1.2-0.5C68.5,42.3,69.7,42.5,70.6,43.6z"/>
	<path fill="#5BC7E8" d="M30.2,13.8c-0.1,0.3-0.3,0.6-0.7,0.7l0,0l0,0c-0.4-0.6-1.1-0.1-1.6-0.5c0.6-0.4,1.4,0.1,2-0.5
		C30,13.7,30.1,13.8,30.2,13.8z"/>
	<path fill="#5BC7E8" d="M59,39.7c-0.1,0.1-0.2,0.2-0.3,0.3c0-0.5-0.1-1,0-1.5l0,0l0,0c0-0.1,0-0.1,0.1-0.2
		C59.1,38.7,58.9,39.2,59,39.7z"/>
	<path fill="#5BC7E8" d="M27.6,20.5c-0.2,0.4-0.2,1-0.6,1.3C27.3,21.4,26.9,20.7,27.6,20.5z"/>
	<path fill="#5BC7E8" d="M15,17.8c-0.2,0.2-0.4,0.5-0.6,0.7C14.5,18.2,14.7,18,15,17.8z"/>
	<path fill="#5BC7E8" d="M45.1,50.8c-0.1,0.2-0.2,0.3-0.3,0.3C44.9,51.1,45,50.9,45.1,50.8z"/>
	<path fill="#5BC7E8" d="M35.9,16.3c1.3,0,2.6,0,3.8,0c0,0.1,0,0.1,0,0.2c-1.3,0-2.6,0-3.9,0C35.9,16.4,35.9,16.3,35.9,16.3z"/>
	<path fill="#5BC7E8" d="M48.4,49.1c0.7-0.6,1.4-1.3,2.3-2.1C50.2,48.1,49.4,48.7,48.4,49.1z"/>
	<path fill="#5BC7E8" d="M27.6,20.5c-0.2,0.4-0.2,1-0.6,1.3v-3.5C27.5,19.1,26.9,19.9,27.6,20.5z"/>
	<path fill="#5BC7E8" d="M44.8,53.5v-2.3c0.1-0.1,0.2-0.2,0.3-0.3C45.2,51.7,45.3,52.6,44.8,53.5z"/>
	<path fill="#5BC7E8" d="M42,54.6c0.7,0.7,0.1,1.7,1.1,1.8C41.7,56.5,42.3,55.5,42,54.6z"/>
	<path fill="#5BC7E8" d="M23.4,28.5c0-1-0.6-1.6-0.3-2.5C23.5,26.7,23.8,27.4,23.4,28.5z"/>
	<path fill="#5BC7E8" d="M15,17.8c-0.2,0.2-0.4,0.5-0.6,0.7v-2.1C14.9,16.9,14.5,17.6,15,17.8z"/>
	<path fill="#5BC7E8" d="M25.2,24.7c-0.7,0.1-1.1,0.4-1.7,0.1C24,24,24.5,24.4,25.2,24.7z"/>
	<path fill="#5BC7E8" d="M29.6,14.5c-0.3,0.5-0.6,0.9-1.3,1.2C28.5,14.9,28.9,14.6,29.6,14.5L29.6,14.5z"/>
	<path fill="#5BC7E8" d="M9.7,31.3c-0.3,0.6-0.5,1-0.8,1.5C8.7,32.1,8.8,31.7,9.7,31.3z"/>
	<path fill="#5BC7E8" d="M24.7,31.1c0.3,0.8,0.3,1.3-0.2,1.8C24.6,32.3,24.6,31.9,24.7,31.1z"/>
	<path fill="#5BC7E8" d="M57,29.1c-0.2,0.3-0.5,0.5-0.8,0.9C56.4,28.8,56.4,28.8,57,29.1L57,29.1z"/>
	<path fill="#5BC7E8" d="M42.9,43.7c0.8,0,1.2-0.2,1.6,0.1C44,44,43.5,44,42.9,43.7z"/>
	<path fill="#5BC7E8" d="M7.7,30.1c0.3,0,0.5,0.1,0.4,0.4c0,0.1-0.2,0.2-0.3,0.4c-0.2-0.2-0.4-0.4-0.5-0.6
		C7.5,30.2,7.7,30.1,7.7,30.1z"/>
	<path fill="#5BC7E8" d="M57,29.1c0.5-0.5,1.1-0.4,1.6,0C58.1,29.1,57.5,29.1,57,29.1L57,29.1z"/>
	<path fill="#5BC7E8" d="M51.8,45.2c0.3,0.4,0.2,0.8,0.2,1.2C51.6,46,51.7,45.6,51.8,45.2z"/>
	<path fill="#5BC7E8" d="M64.6,28.1c0,0.3,0,0.8-0.1,0.8c-0.4,0.1-0.2-0.3-0.2-0.5c0-0.1,0.1-0.3,0.1-0.4
		C64.4,28.1,64.5,28.1,64.6,28.1z"/>
	<path fill="#5BC7E8" d="M63,27.9c0.4,0.5,0.2,0.8,0.3,1.3C62.8,28.7,63,28.4,63,27.9z"/>
</g>
</svg>
