<?xml version="1.0" encoding="utf-8"?>
<!-- Generator: Adobe Illustrator 22.0.1, SVG Export Plug-In . SVG Version: 6.00 Build 0)  -->
<svg version="1.1" id="Layer_1" xmlns="http://www.w3.org/2000/svg" xmlns:xlink="http://www.w3.org/1999/xlink" x="0px" y="0px"
	 viewBox="0 0 75 75" enable-background="new 0 0 75 75" xml:space="preserve">
<g>
	<path fill="#D1D1D1" d="M51.9,0H23.1C10.3,0,0,10.3,0,23.1v28.8C0,64.7,10.3,75,23.1,75h28.8C64.7,75,75,64.7,75,51.9V23.1
		C75,10.3,64.7,0,51.9,0z M67.8,49.1c0,10.3-8.4,18.7-18.7,18.7H25.9c-10.3,0-18.7-8.4-18.7-18.7V25.9c0-10.3,8.4-18.7,18.7-18.7
		h23.3c10.3,0,18.7,8.4,18.7,18.7L67.8,49.1L67.8,49.1z"/>
	<path fill="#D1D1D1" d="M38.5,17.9c-10.9,0-19.8,8.8-19.8,19.8c0,10.9,8.8,19.8,19.8,19.8c10.9,0,19.8-8.8,19.8-19.8
		S49.4,17.9,38.5,17.9z M38.5,49.5c-6.6,0-11.9-5.3-11.9-11.9s5.3-11.9,11.9-11.9S50.4,31,50.4,37.6S45.1,49.5,38.5,49.5z"/>
	<path fill="#D1D1D1" d="M61.2,17.9c0,2.6-2.1,4.7-4.7,4.7c-2.6,0-4.7-2.1-4.7-4.7s2.1-4.7,4.7-4.7C59.1,13.2,61.2,15.3,61.2,17.9z"
		/>
</g>
</svg>
