<?xml version="1.0" encoding="utf-8"?>
<!-- Generator: Adobe Illustrator 22.0.1, SVG Export Plug-In . SVG Version: 6.00 Build 0)  -->
<svg version="1.1" id="Layer_1" xmlns="http://www.w3.org/2000/svg" xmlns:xlink="http://www.w3.org/1999/xlink" x="0px" y="0px"
	 viewBox="0 0 75 75" enable-background="new 0 0 75 75" xml:space="preserve">
<g>
	<g>
		<path fill="#FFC7C7" d="M12.1,55.6C5.9,57.7,3.5,57.1,0,52.7c0-3.3,0-6.6,0-9.9c1.4-0.8,0.1-2.7,1.4-3.6c0.7,2.2,1.2,4.7,0.7,6.2
			c-0.9,2.6,0.3,3.8,2.4,5.3c2.2,1.5,4.8,1.7,6.8,3.4C11.3,54.7,11.5,55.3,12.1,55.6z"/>
		<path fill="#FFC2C2" d="M21.9,69c-3-2.6-5.5-5.6-5.7-9.9c1-0.2,0.4-2.4,2-1.8c0.6,0.2,1.5,0.9,1.1,1.5c-1.1,1.9,0.4,3.4,0.5,5.1
			c1.6,1.6,2.9,3.4,5,4.3c0,0.2,0,0.5-0.1,0.7C23.8,69,22.9,69,21.9,69z"/>
		<path fill="#FF9D9D" d="M65.8,53.3c-4,0.1-8,1.2-12.1,0.8c2.1-3.2-0.6-4.9-2.1-7c-1.1-2-0.9-4.1,0-5.9c0.9-1.8,0.4-2.8-0.8-4
			c-1-2.9-4.3-3.9-5.7-6.5c1.1-8,0.3-9.5-5.6-11.9c1.4-4.3,1.5-4.3,4.9-1.3c1.4,1.2,2.9,2.5,4.9,2.6c2.2,0.2,1.8-2.2,2.9-3
			c1.1-0.7,2.7-3.3,3.7,0.3c0.3,1.1,1.6,1.9,2.5,1.7c2.8-0.8,4.5,1.6,6.6,2.4c2.6,1.1,4.7,3.1,5.2,6.8c0.5,3.6,0.7,7.4,2.3,11
			C74.6,44.2,70.2,51.9,65.8,53.3z"/>
		<path fill="#FF9E9E" d="M65.8,53.3c4.4-1.4,8.8-9.1,6.7-13.9c-1.6-3.7-1.7-7.4-2.3-11c-0.5-3.7-2.6-5.7-5.2-6.8
			c-2.1-0.9-3.7-3.2-6.6-2.4c-0.8,0.2-2.2-0.5-2.5-1.7c-0.9-3.7-2.6-1-3.7-0.3c-1.2,0.7-0.7,3.1-2.9,3c-2-0.2-3.5-1.5-4.9-2.6
			c-3.4-3-3.5-3-4.9,1.3c-1.5,0.5-2.5,1.6-3.6,2.8c-1.6,0-3.3,0-4.9,0l0,0c0.2-5,2.3-9.7,2.8-14.7c6.8-0.8,13.7-1,20.6-0.7
			c3,1.3,6.1,0.3,9.2,0.6l0,0c0.6,1.1,0.8,2.6,1.7,3.4c1.8,1.7,1.8,5.3,5.3,5.2c0.5,0,0.9,0,1.4,0l0,0c1.2,2,0.6,4.2,0.7,6.3
			c0.6,1.1-2.1,3.6,1.4,3.6c0.4,4.2-0.7,8.5,0.6,12.7c0,2.7,0.1,5.4,0.1,8.1c0,5.6-1.4,7.1-7,7.4C67.2,53.4,66.5,53.3,65.8,53.3z"/>
		<path fill="#FFB6B6" d="M2.8,25.8C2.4,22,3.5,18.4,3.6,14.6c0.1-2.2,1.4-3.4,3.5-3.7c4.7-0.9,9.4-1.7,14.1-2.6
			c-1.1,2.4-0.5,6.2-4.9,5.8c-0.5,0-0.5,0.7-0.2,1.1c1.2,2,0.6,4.2,0.8,6.3c0.2,2.1,2,4.3,1.6,5.3c-1.4,3.4,0.8,6.4,0,9.6
			c-0.2,1.4-0.5,2.8-0.7,4.2c-1.7,3.1,2.7,4.5,1.8,7.3c2.3-0.3,3.1-2.5,4.9-3.7c0.6,2.2,1,4.2,3.2,4.9c0.3,0.6,0.8,0.7,1.4,0.7
			c-0.9,1.2-1.8,2.6-3.5,1.3c-0.5-0.4-0.9-1.3-1.6-0.5s-0.7,1.8,0,2.5c0.8,0.8,2.3,0.8,2.3,2.4c-1.6,1.2-6.3-1.1-7.1-3.5l0,0
			c0.6-0.1,1.5,0.3,1.7-0.7c0.2-0.7-0.8-0.7-1.1-1.1c-0.7-0.9-2.5,1-2.8-1c-0.2-0.2-0.5-0.5-0.7-0.7c0.3-0.7,1-1.8,0.8-2.1
			c-1.6-2.1-1-4.3-0.4-6.5c0.3-1.2-0.4-2.1-1.3-1.9c-3.2,0.5-5.1-1.9-7.5-3c-1.5-0.2-0.9-2.7-2.5-2.5c-2.5,0.3-2.3-1.4-2.4-2.8
			C2.7,28.4,2.8,27.1,2.8,25.8z"/>
		<path fill="#FFB2B2" d="M22.6,8.2c1.4-0.3,2.7-1,4.2-0.7c-0.5,0.4-0.9,0.8-1.4,1.2c2.5,1.7,0.5,3.7,0.1,5.4c-0.6,2.6-0.9,5,0,7.5
			c-1.2,2.5-1.1,5-0.1,7.5c1.1,2.5,2.3,4.9,3.5,7.3c-1.2,3.1-2.9,6.1,0,9.2c-0.7,1.1-1.4,0.2-2.1,0l0,0c0.1-2.5-1.4-4.9-1.6-6.8
			c-0.3-4.2-2.3-5.2-5.5-5.9c-0.2-1.5,0.4-2.7,1.2-3.9c1.2-2,2.3-4.3,0.8-6.5c-1.4-2.1-0.8-3.9,0.1-5.8
			C23.8,12.5,23.8,11.9,22.6,8.2z"/>
		<path fill="#FFACAC" d="M53,54.2h-0.3h-0.3c-1.3-0.3-3.6,0.9-3.1-2.1c0.1-0.4-0.6-1.1-1-1.2c-5-1-6.1-6-9.4-8.8
			c1.9-3.3,3.8-6.6,5.7-9.8c1.7,0.9,2.2,2.2,1.9,4.3c-0.2,1.5-0.9,3.6,0.9,4.9c1.3,1.9-0.5,5.1,2.1,6.1C52.8,48.9,53.3,51.2,53,54.2
			z"/>
		<path fill="#FFADAD" d="M38.9,42c3.3,2.8,4.4,7.8,9.4,8.8c0.4,0.1,1.1,0.9,1,1.2c-0.5,3,1.8,1.9,3.1,2.1
			c-3.3,1.4-6.8,0.2-10.2,1.3c-1.5,0.5-3.1,0.6-4.7,0.8v-0.1c0-2.1,0.5-4-1-6.2c-1.2-1.8-3-5.3,1-7.1C37.9,42.6,38.4,42.3,38.9,42z"
			/>
		<path fill="#FFB5B5" d="M22.6,8.2c1.2,3.7,1.1,4.2-0.7,8.4c-0.9,2-1.5,3.7-0.1,5.8c1.5,2.2,0.4,4.5-0.8,6.5
			c-0.8,1.3-1.3,2.4-1.2,3.9c0.6,1.6,0.3,2.8-1.4,3.5c0.9-3.1-1.3-6.2,0-9.6c0.4-1-1.4-3.3-1.6-5.3c-0.2-2.1,0.4-4.3-0.8-6.3
			c-0.2-0.4-0.3-1.2,0.2-1.1c4.4,0.4,3.8-3.5,4.9-5.8C21.7,8.3,22.1,8.2,22.6,8.2z"/>
		<path fill="#FFA1A1" d="M25.6,21.7c-1-2.5-0.6-5,0-7.5c0.4-1.7,2.4-3.7-0.1-5.4C26,8.4,26.4,8,26.9,7.6c2.4,0,4.6-1.1,7.1-0.7
			c-0.4,5-2.6,9.7-2.8,14.7C29.3,21,27.4,20.8,25.6,21.7z"/>
		<path fill="#FFB6B6" d="M26.2,55.5c0-1.5-1.6-1.6-2.3-2.4c-0.7-0.8-0.7-1.8,0-2.5c0.7-0.8,1.1,0.1,1.6,0.5
			c1.8,1.4,2.6-0.1,3.5-1.3c1-0.4,3-1.1,3-0.2c-0.1,2.8,3,3,3.4,5.2c0.1,1.4,1.1,1.4,2.1,1.4v0.1c-2.2,1.3-4.5,2.5-6.4,4.2
			c-1.5,0.1-2.7,0.2-2.2-2.1C29.4,56.4,28.2,55.4,26.2,55.5z"/>
		<path fill="#FFB8B8" d="M26.2,55.5c2-0.1,3.2,0.9,2.8,2.9c-0.5,2.3,0.7,2.2,2.2,2.1c-0.4,2.2-2.2,3.4-3.5,4.9
			c-1.1-0.6-1.6-1.5-2.2-2.5c-1.2-2-2.5-4.2-4.9-5.3c-4.2-2.7-4.2-2.7-1.4-5.7C19.9,54.4,24.6,56.7,26.2,55.5z"/>
		<path fill="#FFC3C3" d="M11.3,54.1c-2-1.7-4.6-1.9-6.8-3.4c-2.1-1.5-3.3-2.7-2.4-5.3c0.5-1.5,0-4-0.7-6.2c0.2-2.1-0.6-4.4,0.7-6.4
			c0,0.3,0,0.5,0.1,0.8c-0.5,3.2,0.4,6,2.8,8.1c1.1,1,0.8,1.7,0.2,2.9c-1.6,2.9-1,3.8,2.6,4.5C9.7,50.3,11,51.9,11.3,54.1z"/>
		<path fill="#FFBCBC" d="M20.5,57.7c2.3,1.1,3.6,3.2,4.9,5.3c0.6,1,1.1,2,2.2,2.5c-0.1,1.8-1.6,2.2-2.8,2.9c-2.1-0.9-3.5-2.7-5-4.3
			C20.4,62,21.4,59.9,20.5,57.7z"/>
		<path fill="#FFBCBC" d="M2.1,33.6c0-0.3,0-0.5-0.1-0.8c0.3-2.4-0.6-4.8,0.7-7.1c0,1.3-0.1,2.6,0.1,3.9C3,31,2.7,32.8,5.2,32.4
			c1.5-0.2,1,2.3,2.5,2.5c-1.2,2.2,0,3.9,1.7,4.5c2.2,0.8,1.2,2,1.1,3.2c-0.2,0-0.5,0-0.7,0c-1.7-1.7-3.1-3.7-5.7-4.3
			c-0.9-0.2-1.6-0.9-0.7-2.1C4.9,34.6,3.8,34,2.1,33.6z"/>
		<path fill="#FFA2A2" d="M70.7,15.2c-3.5,0.1-3.5-3.5-5.3-5.2c-0.9-0.8-1.2-2.2-1.7-3.4c1.2,0.1,2.3,0.1,3.5,0.2
			c0.6,1,1.7,1.8,1.4,3.1C68.1,12.2,69.5,13.7,70.7,15.2z"/>
		<path fill="#FFD4D4" d="M69.3,7.5c4.9,1.7,5.2,5.6,5,9.9c-0.9-0.5-0.6-2.3-2.1-2.1l0,0C71.2,12.7,70.2,10.1,69.3,7.5z"/>
		<path fill="#FFB4B4" d="M72.1,15.3c1.6-0.2,1.2,1.6,2.1,2.1c0.7,6.8,0.9,13.6,0.6,20.5c-1.4-4.2-0.2-8.5-0.6-12.7
			c0-1.4,0.3-2.8-1.4-3.6C72.7,19.5,73.3,17.3,72.1,15.3z"/>
		<path fill="#FFA8A8" d="M53,54.2c0.3-3-0.3-5.3-3.6-6.6c-2.6-1.1-0.8-4.3-2.1-6.1l0,0c1.4,0.7,3.1,0.9,1.7,3.4
			c-1,1.7,1,2.2,2.5,2.2c1.5,2.1,4.2,3.9,2.1,7C53.5,54.1,53.3,54.1,53,54.2z"/>
		<path fill="#FFBCBC" d="M69.3,7.5c0.9,2.6,1.9,5.2,2.8,7.8c-0.5,0-0.9,0-1.4,0c-1.2-1.6-2.6-3-2.1-5.3c0.3-1.3-0.8-2.1-1.4-3.1
			C67.9,7.1,68.6,7.3,69.3,7.5z"/>
		<path fill="#FFA2A2" d="M63.7,6.7c-3.1-0.3-6.2,0.7-9.2-0.6C57.6,6.3,60.7,5.5,63.7,6.7z"/>
		<path fill="#FFBDBD" d="M9.9,42.8c0.2,0,0.5,0,0.7,0c0.4,1.5,0.6,4.6,1.1,4.3c2.3-1.3,3.1,0.9,4.5,1.3c0.2,0.2,0.5,0.5,0.7,0.7
			c-2.1,3,2,1.5,2.1,2.8l0,0c-2.8,2.9-2.8,2.9,1.4,5.7c0.9,2.2-0.1,4.3-0.7,6.4c-0.1-1.7-1.6-3.2-0.5-5.1c0.4-0.7-0.5-1.3-1.1-1.5
			c-1.6-0.6-1,1.6-2,1.8c-0.7-1.9-1-4.4-4.1-3.5c-0.6-0.3-0.8-0.8-0.8-1.5c-0.3-2.3-1.7-3.8-3.5-4.9C7.1,46.6,10.4,45.4,9.9,42.8z"
			/>
		<path fill="#FFA8A8" d="M44.5,32.2c0.2-0.5,0.4-1,0.7-1.5c1.4,2.6,4.7,3.5,5.7,6.5c0.3,2.6-3.8,1.6-3.5,4.2l0,0
			c-1.8-1.3-1.1-3.4-0.9-4.9C46.7,34.4,46.3,33.1,44.5,32.2z"/>
		<path fill="#FFA0A0" d="M47.4,41.4c-0.3-2.6,3.8-1.6,3.5-4.2c1.1,1.2,1.7,2.2,0.8,4s-1.1,3.9,0,5.9c-1.5,0-3.5-0.5-2.5-2.2
			C50.5,42.3,48.7,42.1,47.4,41.4z"/>
		<path fill="#FFA1A1" d="M36,21.6c-1.6,4.9-3.3,0.8-4.9,0C32.8,21.6,34.4,21.6,36,21.6z"/>
		<path fill="#FFAEAE" d="M72.8,21.6c1.6,0.7,1.4,2.2,1.4,3.6C70.7,25.2,73.4,22.7,72.8,21.6z"/>
		<path fill="#FFB9B9" d="M16.3,48.5c-1.4-0.5-2.2-2.6-4.5-1.3c-0.5,0.3-0.7-2.8-1.1-4.3c0.1-1.2,1.1-2.4-1.1-3.2
			c-1.8-0.7-3-2.5-1.8-4.7c2.5,1.1,4.4,3.5,7.5,3c0.9-0.2,1.7,0.7,1.3,1.9c-0.6,2.2-1.2,4.3,0.4,6.5C17.3,46.7,16.5,47.8,16.3,48.5z
			"/>
		<path fill="#FFB4B4" d="M18.4,36.5c1.7-0.7,2-1.9,1.4-3.5c3.2,0.7,5.3,1.7,5.5,5.9c0.1,2,1.7,4.4,1.6,6.8c-1.4-1-1.3-2.5-1.3-4.2
			c-3,2-5.5,0.8-7.9-0.8C17.9,39.3,18.1,37.9,18.4,36.5z"/>
		<path fill="#FFB6B6" d="M17.7,40.7c2.4,1.6,4.9,2.8,7.9,0.8c0,1.6-0.1,3.2,1.3,4.2l0,0c0.2,0.7,0.5,1.4,0.7,2.1c0,0.5,0,0.9,0,1.4
			c-2.2-0.7-2.6-2.7-3.2-4.9c-1.8,1.2-2.6,3.4-4.9,3.7C20.4,45.2,16,43.8,17.7,40.7z"/>
		<path fill="#FFB3B3" d="M27.6,49.2c0-0.5,0-0.9,0-1.4c1.6,1,3.1,1,4.2-0.7l0,0c0.2,1.7,1.5,1.9,2.8,2.1c-0.1,1.9,3.4,3.4,0.7,5.7
			c-0.4-2.2-3.5-2.4-3.4-5.2c0-0.9-2-0.2-3,0.2C28.4,49.9,27.9,49.8,27.6,49.2z"/>
		<path fill="#FFB8B8" d="M19.1,52c-0.1-1.4-4.2,0.2-2.1-2.8c0.3,2,2,0.1,2.8,1c0.3,0.4,1.3,0.4,1.1,1.1
			C20.6,52.3,19.7,51.9,19.1,52z"/>
		<path fill="#FFB0B1" d="M35.4,54.8c2.7-2.3-0.8-3.7-0.7-5.7c-0.5-1.3-1.8-1.5-2.8-2.1l0,0c0-2.3-1.5-1.6-2.8-1.4
			c-2.9-3.1-1.1-6.1,0-9.2c2.5,2.6,3.8,6.6,8.4,6.5c-3.9,1.8-2.2,5.3-1,7.1c1.4,2.2,1,4.1,1,6.2C36.4,56.3,35.4,56.3,35.4,54.8z"/>
		<path fill="#FFB2B2" d="M29,45.6c1.3-0.2,2.8-0.9,2.8,1.4c-1.2,1.7-2.6,1.7-4.2,0.7c-0.2-0.7-0.5-1.4-0.7-2.1
			C27.6,45.8,28.3,46.8,29,45.6z"/>
		<path fill="#FFC1C1" d="M9.9,42.8c0.5,2.5-2.8,3.8-2.1,6.4c-3.6-0.8-4.2-1.7-2.6-4.5c0.7-1.2,1-1.9-0.2-2.9
			c-2.4-2.2-3.3-4.9-2.8-8.1c1.7,0.3,2.8,1,1.4,2.8c-0.9,1.2-0.2,1.9,0.7,2.1C6.8,39.1,8.2,41.1,9.9,42.8z"/>
		<path fill="#FFB2B2" d="M31.8,47.1c1,0.6,2.3,0.8,2.8,2.1C33.4,48.9,32,48.7,31.8,47.1z"/>
	</g>
</g>
</svg>
