<?xml version="1.0" encoding="utf-8"?>
<!-- Generator: Adobe Illustrator 22.0.1, SVG Export Plug-In . SVG Version: 6.00 Build 0)  -->
<svg version="1.1" id="Layer_1" xmlns="http://www.w3.org/2000/svg" xmlns:xlink="http://www.w3.org/1999/xlink" x="0px" y="0px"
	 viewBox="0 0 75 75" enable-background="new 0 0 75 75" xml:space="preserve">
<g>
	<g>
		<path fill="#FF547B" d="M68.9,25.6c-5.3,6.8-5.7,7.3-14.7,9.9c1.3,1,2.5,1.9,3.6,2.8c3.3,2.5,5.7,5.7,6.9,9.7
			c1.2,4.3-1.5,8.1-5.9,8.3c-1.1,0.1-2.2-0.2-3.3-0.3c-0.9-1.2-1.9-2.4,0.9-2.3c0.8,0,1.6,0.2,2.2-0.5c1.9-1.1,3.5-2.4,3.2-4.9
			c-0.3-2-1.2-3.6-2.5-5.1c-4-4.7-9.1-7.3-15.2-8.3c-0.6-0.1-1.3-0.2-1.3-1c0-0.6,0.4-0.8,1-0.9c0.7-0.1,1.4,0.1,1.9-0.6
			c1.9,0,3.9,0.1,5.8-0.2c6-0.9,11.6-2.5,13.9-9.1c0.8,0.2,1.6,0.4,2.3,0.6c0.4,0.2,0.8,0.4,1.2,0.6C68.9,24.8,68.9,25.2,68.9,25.6z
			"/>
		<path fill="#FF577D" d="M47.5,0c5,2.9,6.5,6.7,4.9,12.3c0-2,0.1-4.1-3-3.2c-0.4-2,1-4.8-2.1-5.6c-3-0.8-4.5,1.5-6.1,3.5
			c-1.2,1.6-1.4,3.5-2.3,5.2c0-1.9-0.8-3.1-2.9-3.1c1-4.4,3.8-7.3,7.8-9.2C45.1,0,46.3,0,47.5,0z"/>
		<path fill="#FF7794" d="M68.9,24.4c-0.4-0.2-0.8-0.4-1.2-0.6c-0.2-2.5-3.4-3.5-3-6.3c2.2,0.7,3,2.7,4.2,4.4
			C68.9,22.8,68.9,23.6,68.9,24.4z"/>
		<path fill="#FF537B" d="M36.1,9.2c2.1,0,2.9,1.2,2.9,3.1c0.1,2.4-0.6,4.9,0.1,7.4c0.7-0.5,0.4-1.2,0.5-1.7
			c0.1-0.6-0.3-1.5,0.6-1.8c0.8-0.2,1.6,0.3,2.1,0.9c1.3,1.2,0.7,2.8,0.8,4.3c-0.5,0.7-0.9,1.5-0.2,2.2c0.3,0.2,0.7-0.5,0.8-0.9
			c3-4,4.6-8.6,5.7-13.4c3.1-1,2.9,1.2,3,3.2c-0.7,2.5-1,5.1-2.6,8c4.7-1.9,8.8-4,13.5-3.2c0.7,2.8-1.9,2.1-3.1,3
			c-4.4,1.5-8.7,3.4-12.8,6.8c2.2-0.2,3.8-0.9,5.4-0.6c1,0.2,2,0.9,2,2c0,1.1-1.1,0.9-1.9,1c-2.9,0.6-5.7,1.2-8.6,1.9
			c-1.7-3.9-4.5-6.4-8.6-7.3c-0.2,0-0.3,0-0.5-0.1c0.1-6.6-1.1-12.7-6.2-17.5c0.4-0.5,0.8-0.9,1.1-1.4c1.3,1.6,3.1,2.8,4.3,4.7
			C35.4,10.9,35.8,9.9,36.1,9.2z"/>
		<path fill="#FF819C" d="M18.2,45.7c0.2-1.7,1.4-3,2.2-4.6c-1.8-0.6-3.7,0.2-5.3-0.8c0-0.8,0-1.6,0-2.4c2.9,0.1,5.7-0.9,8.5-1.4
			c0.8,1.6-0.2,3.8,1.7,5c-1.3,2.6-4.3,4.1-4.8,7.3C18.6,48.7,19,46.8,18.2,45.7z"/>
		<path fill="#FF829D" d="M17.6,15.9c-1.6-1.8-2.7-3.8-3.3-6.1c-1.6-5.1,0.9-8.4,6.4-8.6c0,0.8,0,1.6,0,2.4c0,0.2,0,0.4,0,0.5
			c-2.7,0.4-3.2,2.2-3.2,4.5c0,2,1.2,3.6,1.9,5.3C18.6,14.5,18,15.1,17.6,15.9z"/>
		<path fill="#FF87A1" d="M33.1,52.6c-1.8,2-3.9,3.5-6.8,3.6c-1.1,0-2.1,0-3.2,0c-2-0.2-3.3-1.4-4.3-3c0.4-1-0.8-3.1,1.7-2.5
			c0.9,3.1,1.9,3.7,4.8,2.5c1.6-0.7,3-1.7,4.5-2.6c0.4,1.1,1.6,1.4,2.5,1.9C32.6,52.5,32.8,52.5,33.1,52.6z"/>
		<path fill="#FF809B" d="M7.1,29.2c1.2-2.7,3.8-3.4,6.3-4.2c1,0.7,2,1,2.4-0.6c1-0.2,2-0.8,3.1-0.5c0,0.4,0,0.7,0,1.1
			c0,0.2,0,0.4,0,0.6c-0.6,0.3-1.1,0.7-1.2,1.4c-1.6,0.6-3.2,1.1-4.9,1.7c-0.6,0-0.1-1.4-1.1-1c-0.9,0.4-0.8,1.3-0.8,2.1
			c-0.2,0.2-0.5,0.5-0.7,0.7C8.9,30.8,8,30.1,7.1,29.2z"/>
		<path fill="#FF718F" d="M44.5,49.3c-0.4-0.4-0.8-0.9-1.2-1.2c-0.3-0.2-0.4-1-1-0.5c-0.2,0.2-0.1,0.7-0.2,1.1
			c-1.1,1.2,0.1,2.5-0.1,3.7c-0.9-0.5-1.6-2.2-2.9-0.6c-0.5-2.2,0.6-4.6-1.1-6.6c0,0-0.2-0.2-0.2-0.2c1.5-1,3.6-1.3,4.4-3.3
			c0.8,0.7,1.3,1.7,1.6,2.7c-1.1,0.7-2,1.3-0.3,2.4C44.2,47.5,45.3,48.1,44.5,49.3z"/>
		<path fill="#FF8AA4" d="M7.1,29.2c0.9,0.9,1.8,1.6,3.1,1.3c-1,2-0.8,3.8,0.7,5.5c-0.4,0.6-0.8,1.2-1.2,1.8
			C6,34.8,5.2,32.3,7.1,29.2z"/>
		<path fill="#FF7592" d="M21.2,20.8c-0.2-0.2-0.3-0.4-0.5-0.6c0.2-1,0.3-2.1,0.5-3.1c1.7,3,4.2,5.1,6.9,7.2
			c-1.9,1.4,0.2,2.1,0.5,3.2c-1.1,0.1-2.1,0-3-0.6c-1.7-0.6,0.5-3.4-1.9-3.6c0,0,0,0,0,0C23.9,21.4,23,20.6,21.2,20.8z"/>
		<path fill="#FF597E" d="M58.5,53.2c-0.6,0.7-1.4,0.6-2.2,0.5c-2.7-0.1-1.8,1.1-0.9,2.3c-2.8-0.4-5.1-1.8-7.3-3.5
			c0-0.9,0.1-1.8,0.1-2.7C51.2,52.3,54.6,53.7,58.5,53.2z"/>
		<path fill="#FF7B97" d="M36.7,62.2c0.6-2,1.2-4.1,1.8-6.1c1.2,0.2,2.4,0.4,3.6,0.6c-0.5,1.9-0.5,3.9-1.8,5.6
			C39.1,60.8,37.8,62.7,36.7,62.2z"/>
		<path fill="#FF718F" d="M37.9,45.3c-0.3,1.6-1.1,2.9-2.1,4.1c-1.8-0.3-2.4-1.5-2.4-3.2c0.6-1.4,1.3-2.8,1.9-4.2
			c1,0.8-0.6,3.8,2.4,3L37.9,45.3z"/>
		<path fill="#FF9AB0" d="M36.4,71.9c-0.3,0.6-0.7,1.2-1,1.9c-0.5,1.1-1.3,1.6-2.4,0.9c-1-0.7-1.7-1.5-0.9-2.8
			c0.4-0.8,0.9-1.5,1.4-2.3C35,69.6,35.9,70.6,36.4,71.9z"/>
		<path fill="#FF7693" d="M42,56.7c-1.2-0.2-2.4-0.4-3.6-0.6c0.2-1.4,0.4-2.9,0.6-4.3c1.4-1.6,2,0.1,2.9,0.6c0,1.1,0.1,2.1,0.1,3.2
			C42.1,56,42.1,56.4,42,56.7z"/>
		<path fill="#FF6D8D" d="M48.2,49.8c0,0.9-0.1,1.8-0.1,2.7c-1.3-0.9-2.7-1.7-3.6-3.2c0.7-1.2-0.3-1.9-1-2.4
			c-1.7-1.1-0.8-1.8,0.3-2.4C44.6,46.9,46.8,48,48.2,49.8z"/>
		<path fill="#FF7997" d="M23.6,23.3c2.5,0.2,0.2,3,1.9,3.6c-2,0-4.1-0.1-6.1-0.1c0-0.5-0.1-0.9-0.6-1.2c0-0.2,0-0.4,0-0.6
			c0.8,0,1.4-0.4,1.8-1.1c0.2,0,0.4,0,0.7,0c0.8,0.6,1.6,0.9,2.3-0.1C23.6,23.6,23.6,23.4,23.6,23.3z"/>
		<path fill="#FF5D80" d="M30.3,4.9c-0.4,0.5-0.8,0.9-1.1,1.4c-1.6-0.7-3.2-1.4-4.8-2.2C25,3.5,21.8,1.8,25,1.8
			C26.7,3,29.1,2.9,30.3,4.9z"/>
		<path fill="#FF8AA3" d="M9.7,37.8c0.4-0.6,0.8-1.2,1.2-1.8c1.3,0.9,2.8,1.5,4.3,1.9c0,0.8,0,1.6,0,2.4C13,40.2,11.2,39.4,9.7,37.8
			z"/>
		<path fill="#FF7D98" d="M36.7,62.2c1.2,0.4,2.4-1.4,3.6,0.1c0.1,0.9,0,1.7-0.6,2.4c-1,0.4-2.1,0.8-3.1,1.2
			c-0.4-0.2-0.8-0.4-1.1-0.6C35.8,64.3,36.2,63.3,36.7,62.2z"/>
		<path fill="#FF7997" d="M21.2,17.1c-0.2,1-0.3,2.1-0.5,3.1c-1.3-1.2-2.3-2.6-3-4.3c0.4-0.8,1-1.4,1.7-1.8
			C19.6,15.3,21.1,15.8,21.2,17.1z"/>
		<path fill="#FF7E99" d="M33.4,46.3c0,1.6,0.6,2.9,2.4,3.2c-0.6,1.3-1.6,2.3-2.8,3.2c-0.3,0-0.5-0.1-0.8-0.1
			c2.1-2.1,0.4-2.6-1.3-3.1C31.8,48.3,32.6,47.3,33.4,46.3z"/>
		<path fill="#FF8AA3" d="M36.4,71.9c-0.5-1.4-1.4-2.3-3-2.4c0.3-1.4,1-2.6,1.9-3.7c-0.4,1.8-0.2,3.3,2,3.8
			C37,70.4,36.7,71.2,36.4,71.9z"/>
		<path fill="#FF809B" d="M36.6,65.9c1-0.4,2.1-0.8,3.1-1.2c-0.5,1.2-0.9,2.4-1.4,3.6C37.5,67.6,35.3,68,36.6,65.9z"/>
		<path fill="#FF8EA7" d="M20.6,50.7c-2.6-0.6-1.4,1.5-1.7,2.5c-1.4-1.4-1.3-3.2-1.2-5c0.9,0.5,1.7,1.5,2.9,1.2
			C20.6,49.8,20.6,50.2,20.6,50.7z"/>
		<path fill="#FF859F" d="M36.6,65.9c-1.3,2.1,1,1.7,1.7,2.4c-0.1,0.6-0.4,1-1,1.3c-2.2-0.5-2.3-2-2-3.8c0-0.2,0-0.4,0.1-0.5
			C35.8,65.5,36.2,65.7,36.6,65.9z"/>
		<path fill="#FF6989" d="M25,1.8c-3.2,0,0.1,1.7-0.6,2.3c-0.2,0-0.4,0-0.6,0c-0.5-0.6-1.2-0.5-1.8-0.5c0-0.8,0-1.6,0-2.4
			C23,1.2,24.1,1,25,1.8z"/>
		<path fill="#FF7B97" d="M42.1,55.7c0-1.1-0.1-2.1-0.1-3.2c0.2-1.2-1-2.5,0.1-3.7C42.8,51,42.9,53.4,42.1,55.7z"/>
		<path fill="#FF88A2" d="M20.6,49.4c-1.2,0.3-2-0.7-2.9-1.2c0-0.9-0.2-1.8,0.6-2.5c0.8,1,0.4,3,2.4,3.1
			C20.6,49,20.6,49.2,20.6,49.4z"/>
		<path fill="#FF7997" d="M21.2,20.8c1.8-0.2,2.7,0.6,2.5,2.5C22.6,22.7,21.8,21.8,21.2,20.8z"/>
		<path fill="#FF7A96" d="M21.9,1.2c0,0.8,0,1.6,0,2.4c-0.4,0-0.8,0-1.2,0c0-0.8,0-1.6,0-2.4C21.1,1.2,21.5,1.2,21.9,1.2z"/>
		<path fill="#FF829D" d="M15.8,24.4c-0.5,1.6-1.4,1.3-2.4,0.6C14,24.3,14.9,24.4,15.8,24.4z"/>
		<path fill="#FF7A96" d="M23.7,23.7c-0.7,1.1-1.5,0.8-2.3,0.1C22.1,23.8,22.9,23.8,23.7,23.7z"/>
		<path fill="#FF7A96" d="M20.7,23.9c-0.4,0.8-1,1.1-1.8,1.1c0-0.4,0-0.7,0-1.1C19.5,23.9,20.1,23.9,20.7,23.9z"/>
		<path fill="#FF8EA7" d="M23.1,56.2c1.1,0,2.1,0,3.2,0C25.2,56.9,24.2,56.9,23.1,56.2z"/>
		<path fill="#FF6989" d="M60.3,20.1c1.1-0.9,3.8-0.2,3.1-3c0.5-0.1,1,0,1.3,0.4c-0.4,2.7,2.8,3.8,3,6.3c-0.8-0.2-1.6-0.4-2.3-0.6
			C65.6,19.1,62.6,20.1,60.3,20.1z"/>
		<path fill="#FF6183" d="M44.6,32.3c0.4,0,0.7,0.1,1.1,0.1c-0.5,0.6-1.3,0.5-1.9,0.6c-0.6,0.1-1,0.3-1,0.9c0,0.8,0.7,0.9,1.3,1
			c0,0.3,0,0.7,0,1c-1.7,0.1-2-0.9-1.9-2.2C42.2,31.9,43.6,32.5,44.6,32.3z"/>
		<path fill="#FF6788" d="M44.6,32.3c-1,0.2-2.4-0.4-2.5,1.3C42,35,42.4,36,44,35.9c0,0,0,0,0,0c-0.2,0.6-0.5,1.3-0.7,1.9
			c-0.6-0.6-1.2-1.2-1.8-1.8c-0.3-1.8-1.5-3.8-0.7-5.5c0.7-1.5,0.2-2.2-0.7-3c-1.2-1.1-2.4-2.1-4-2.5c0-0.4-0.1-0.8-0.1-1.2
			c4.1,1,6.9,3.5,8.6,7.3C44.5,31.5,44.6,31.9,44.6,32.3z"/>
		<path fill="#FF9CB2" d="M35.9,23.8c0,0.4,0.1,0.8,0.1,1.2c-0.1,0.3-0.3,0.5-0.4,0.8c-0.5-0.4-0.7-0.9-0.8-1.5
			c0.2-0.2,0.4-0.3,0.5-0.5C35.5,23.8,35.7,23.8,35.9,23.8z"/>
		<path fill="#FFD7DF" d="M43.2,21.3c0.2,0.4,0.4,0.8,0.6,1.3c-0.1,0.5-0.5,1.2-0.8,0.9C42.3,22.8,42.7,22,43.2,21.3z"/>
		<path fill="#FF7895" d="M29.3,37.9c-1.3,1.2-2.6,2.4-3.9,3.5c-1.9-1.2-0.9-3.4-1.7-5c0.3-0.4,0.8-0.5,1.3-0.4c0,0.9,0,2,1.1,2.1
			c1,0.1,1.1-0.8,1.4-1.6c0.3-0.9,1-1.4,2.3-1.4C29.4,36.2,28.5,37,29.3,37.9z"/>
		<path fill="#FF839E" d="M23.7,4.1c-1,0-2,0-3,0.1c0-0.2,0-0.4,0-0.5c0.4,0,0.8,0,1.2,0C22.6,3.7,23.3,3.5,23.7,4.1z"/>
		<path fill="#FF809B" d="M29.8,50.6c0.4-0.4,0.8-0.8,1.2-1.2c1.7,0.5,3.3,1.1,1.3,3.1C31.4,52,30.3,51.7,29.8,50.6z"/>
		<path fill="#FF829D" d="M12.8,28.7c-0.5,0.6-1.1,0.9-1.9,1.1c0-0.8,0-1.7,0.8-2.1C12.7,27.3,12.2,28.7,12.8,28.7z"/>
		<path fill="#FF7A96" d="M19.5,26.8c-0.6,0.1-1.2,0.2-1.8,0.3c0.1-0.7,0.5-1.2,1.2-1.4C19.3,25.9,19.5,26.3,19.5,26.8z"/>
		<path fill="#FF6E8D" d="M31.6,38.3c0-0.3,0-0.6-0.1-1c1.3-1.1,0.9-2.3,0.2-3.5c-1-1.7-2-3.3,0.2-5c0.4-0.3-0.4-0.7-0.9-0.8
			c-0.9,0.1-1.7,0-2.4-0.6c-0.3-1-2.5-1.8-0.5-3.2c1.1,0.8,2.2,1.3,3.8,1.2c-0.2-0.8-0.3-1.5-0.5-2.2c0.9-0.2,1.7-0.4,2.6-0.7
			c0.2,0.4,0.4,0.8,0.6,1.2c-0.9,0.5-1.4,1.3-0.9,2.3c0.8,1.5,0.6,3.1,0.9,4.7c0.4,1.9,3.7,4.8,5.6,4.7c-0.3,2.4,1.4,4.2,1.9,6.4
			c-0.8,2-2.9,2.2-4.4,3.3c-3,0.7-1.4-2.2-2.4-3c-0.2-0.6,0.6-2.2-1.2-1.2C33,40.3,32.2,39.4,31.6,38.3z"/>
		<path fill="#FF6C8C" d="M40.3,35.5c-1.8,0.1-5.2-2.9-5.6-4.7c-0.3-1.6-0.1-3.2-0.9-4.7c-0.6-1-0.1-1.7,0.9-2.3
			c0.1,0.1,0.2,0.3,0.2,0.4c0.1,0.6,0.3,1.1,0.8,1.5c0.1-0.3,0.3-0.5,0.4-0.8c1.6,0.4,2.8,1.5,4,2.5c0.9,0.8,1.4,1.5,0.7,3
			c-0.8,1.7,0.4,3.6,0.7,5.5C41,35.9,40.6,35.7,40.3,35.5z"/>
		<path fill="#FF5B7F" d="M43.3,37.9c0.2-0.6,0.5-1.3,0.7-1.9c2.4,1.3,4.2,3.3,6.2,5.1c0.6,0.6,1.6,1.3,0.7,2.2
			c-0.7,0.7-1.7,0.2-2.4-0.4C46.7,41.1,45,39.5,43.3,37.9z"/>
		<path fill="#FF7592" d="M34,22.6c-0.9,0.2-1.7,0.4-2.6,0.7c-0.8-1.2-1.5-2.5-2.3-3.7c0.8-0.1,1.8,0.2,2.5-0.5
			C32.9,19.9,33.5,21.2,34,22.6z"/>
		<path fill="#FF6688" d="M31.6,19c-0.7,0.8-1.6,0.4-2.5,0.5c-0.8-0.7-0.9-1.6,0.1-2.1C30.6,16.9,31,18.3,31.6,19z"/>
		<path fill="#FF7592" d="M31.1,28.1c0.5,0.1,1.3,0.5,0.9,0.8c-2.2,1.7-1.2,3.3-0.2,5c0.6,1.1,1,2.4-0.2,3.5c-0.8-0.1-1.6,0-2.2,0.6
			c-0.8-1,0.1-1.8,0.5-2.7c-1.3,0-2,0.5-2.3,1.4c-0.3,0.8-0.4,1.7-1.4,1.6C24.9,38,25,37,25,36.1c1.6-0.9,3-2.1,4.4-3.6
			c-2.4-0.6-4.6,1.1-6.8,0.3c0.2-0.9,0.4-1.9,0.6-2.8C25.6,28.8,28.7,29.9,31.1,28.1z"/>
		<path fill="#FF819E" d="M23.1,30c-0.2,0.9-0.4,1.9-0.6,2.8c-0.9-0.3-1.7-0.9-1.6-1.9C21.1,29.9,22.2,29.9,23.1,30z"/>
		<path fill="#FF7693" d="M31.6,38.3c0.6,1.1,1.4,2,2.5,2.6c-0.7,1.4-2.3,1.5-3.2,2.4c-1-0.8-0.3-2.5-1.7-3.1
			C30,39.6,30.8,38.9,31.6,38.3z"/>
		<path fill="#FF819C" d="M29.2,40.2c1.3,0.6,0.6,2.3,1.7,3.1c-1.6,1.3-2.4-0.2-3-1.1C26.9,40.9,28.6,40.8,29.2,40.2z"/>
	</g>
</g>
</svg>
